<?xml version="1.0" encoding="UTF-8" standalone="no"?>
<!-- Created with Inkscape (http://www.inkscape.org/) -->

<svg
   width="24"
   height="24"
   viewBox="0 0 6.3499998 6.35"
   version="1.1"
   id="svg1"
   xml:space="preserve"
   xmlns="http://www.w3.org/2000/svg"
   xmlns:svg="http://www.w3.org/2000/svg"><defs
     id="defs1" /><g
     id="layer1"><path
       style="fill:#000000;stroke-width:0.116639"
       d="M 0.15247169,5.232135 C 0.10189982,5.2131321 0.05143322,5.1649712 0.02797845,5.1133237 0.00382744,5.0601424 0.00248183,5.0008533 0.00220104,3.9773888 0.00197871,3.1681049 0.00606289,2.8836362 0.0185591,2.8419734 0.0371403,2.7799584 0.15402558,2.6468526 0.26266041,2.5640057 c 0.0372796,-0.028421 0.0676087,-0.055042 0.0674214,-0.059137 -1.9775e-4,-0.0041 -0.0245605,-0.018617 -0.0541641,-0.032249 -0.0596168,-0.027474 -0.10288731,-0.087056 -0.11620306,-0.1600001 -0.011467,-0.062881 0.0361095,-0.2170531 0.0848677,-0.2750108 0.0571596,-0.067924 0.10481791,-0.080901 0.29729661,-0.080901 0.19399861,0 0.26146219,0.018207 0.3134101,0.084586 l 0.0315809,0.040345 0.0971535,-0.1959304 C 1.0374625,1.7779437 1.1246892,1.6233519 1.1778634,1.5421631 c 0.09362,-0.142947 0.2625608,-0.3287386 0.3122903,-0.3434409 0.034004,-0.010064 0.4427207,-0.058611 0.6403408,-0.076081 0.8042349,-0.071084 1.8731591,-0.049004 2.5760326,0.05324 0.1503455,0.021869 0.1725014,0.028773 0.2244658,0.069925 0.1262928,0.1000327 0.3122119,0.3729322 0.4549248,0.6677762 l 0.081826,0.1690416 0.031955,-0.040836 c 0.052339,-0.066883 0.1194501,-0.085078 0.3137928,-0.085078 0.1924762,0 0.2401404,0.012965 0.2972977,0.080901 0.04877,0.057956 0.096347,0.2121328 0.08488,0.2750107 -0.01314,0.071973 -0.055639,0.1312729 -0.1152085,0.1607501 l -0.053345,0.026398 0.1185199,0.095305 c 0.070476,0.056668 0.1352419,0.1223472 0.1597672,0.1620103 l 0.041246,0.066708 0.00374,1.1208383 c 0.00421,1.2494584 0.00936,1.1777919 -0.090121,1.2536778 l -0.048314,0.03687 -0.3878872,0.00398 c -0.4344247,0.00444 -0.4518253,0.00152 -0.521615,-0.089993 -0.02944,-0.03859 -0.03756,-0.066135 -0.041843,-0.141805 l -0.00526,-0.093913 H 3.177744 1.1001407 l -0.00526,0.093913 c -0.00433,0.075671 -0.012403,0.103215 -0.041843,0.141805 -0.0682641,0.089501 -0.0872432,0.092941 -0.50556338,0.091736 -0.20591025,-5.85e-4 -0.38361751,-0.00457 -0.39491135,-0.00878 z M 0.87797616,4.9682379 V 4.913477 H 0.59222385 c -0.15716494,0 -0.30500294,-0.00386 -0.32853023,-0.00854 l -0.042779,-0.00854 V 4.959711 5.023026 H 0.5494448 0.87797498 Z m 5.25648774,-0.00854 v -0.063313 l -0.042779,0.00854 c -0.023531,0.00468 -0.1713653,0.00854 -0.3285291,0.00854 H 5.4774011 v 0.054761 0.054749 H 5.8059326 6.1344627 Z M 6.1008585,4.660876 6.1344639,4.6272706 V 3.7578866 2.888505 L 6.0929603,2.8412327 C 6.0357539,2.7760697 5.8718761,2.6533362 5.7648724,2.5955003 5.5820611,2.496685 5.7866012,2.5035652 3.1497115,2.5075436 l -2.37439557,0.00362 -0.10616308,0.050689 C 0.54213984,2.6225063 0.41212604,2.7132338 0.3018671,2.8181536 L 0.2209193,2.8951816 V 3.761253 4.6273256 l 0.0336054,0.033606 0.0335937,0.033606 h 2.889575 2.8895749 z M 0.64969938,4.4558258 C 0.49488049,4.4072197 0.39804617,4.2883125 0.3510969,4.0891794 0.32028805,3.9585034 0.32390368,3.8921081 0.36401486,3.8519946 l 0.0336054,-0.033594 H 3.1776852 5.9577501 l 0.033594,0.033594 c 0.039585,0.039585 0.042755,0.092052 0.013854,0.228457 C 5.968971,4.2513641 5.8874445,4.3714448 5.76771,4.4302415 l -0.07814,0.038367 -2.4913557,0.00258 c -2.0225111,0.0021 -2.5021134,-8.19e-4 -2.54851739,-0.015367 z M 1.4118327,4.1469253 1.4668978,4.0374152 H 1.0140933 0.56128859 l 0.00901,0.030798 c 0.0199035,0.067784 0.0590786,0.1281813 0.10210329,0.1574211 0.0437975,0.029768 0.0560486,0.030797 0.36483162,0.030797 h 0.3195087 z m 3.2853043,0 L 4.642072,4.0374152 H 3.1776793 1.7132867 l -0.055065,0.1095101 -0.055065,0.10951 h 1.5745135 1.5745146 z m 0.9857988,0.078713 c 0.043025,-0.029241 0.0822,-0.089641 0.1021039,-0.1574211 l 0.00901,-0.030798 H 5.3412443 4.8884385 l 0.055065,0.10951 0.055065,0.1095101 h 0.3195099 c 0.3087869,0 0.3210286,-0.00105 0.3648303,-0.030797 z M 1.0148643,3.4677218 C 0.79616247,3.4288978 0.59102334,3.3616401 0.51224368,3.3029302 0.48582272,3.2832373 0.46183558,3.2488948 0.45231093,3.2170914 0.42019156,3.1098981 0.52389792,2.8816738 0.66232471,2.7549306 0.72286598,2.699491 0.845913,2.6274523 0.88005196,2.6274523 c 0.0242563,0 0.18785084,0.085851 0.35883344,0.188305 C 1.409076,2.9177316 1.5720973,3.0377974 1.6507459,3.119081 L 1.7048519,3.175 H 3.175 4.6451495 L 4.7430055,3.084387 C 4.8640152,2.9723494 5.0904725,2.8207004 5.3032969,2.7091941 5.48015,2.6165335 5.4916345,2.6152109 5.5885391,2.6763846 c 0.1437847,0.090765 0.2531368,0.2333129 0.3017418,0.3933316 0.05028,0.1655335 0.00948,0.2279645 -0.2007139,0.3074169 -0.1989973,0.075202 -0.303532,0.092169 -0.5680832,0.092169 -0.227067,0 -0.244959,-0.00198 -0.3432478,-0.037642 L 4.6745412,3.3940181 H 3.1776782 1.6808163 l -0.103695,0.036847 c -0.093397,0.033195 -0.1247655,0.03715 -0.3158705,0.039888 -0.1166945,0.00164 -0.2275759,3.499e-4 -0.2463982,-0.00304 z M 1.4249028,3.2450345 c 0.031979,-0.00889 0.029674,-0.012391 -0.047916,-0.072043 C 1.2770367,3.0961388 1.0940487,2.9772761 0.97063906,2.9090426 l -0.0921342,-0.050934 -0.0731195,0.069153 c -0.060178,0.056914 -0.15459185,0.2030763 -0.14036805,0.2173049 0.0129534,0.012953 0.18325345,0.064894 0.28139834,0.085827 0.11798625,0.025169 0.40885195,0.034062 0.47848145,0.014638 z m 4.0514815,-0.029007 c 0.063431,-0.01678 0.1384854,-0.040568 0.1667797,-0.052877 L 5.694602,3.1407775 5.658855,3.0685935 C 5.639197,3.0288935 5.590205,2.9652979 5.5499884,2.9272566 l -0.07312,-0.069153 -0.092134,0.050934 c -0.1234093,0.068229 -0.3063937,0.1870941 -0.4063463,0.2639489 -0.078081,0.060038 -0.080093,0.063103 -0.047916,0.072863 0.018476,0.00562 0.122917,0.00807 0.2320855,0.00538 0.149812,-0.00362 0.2267698,-0.012239 0.313822,-0.035255 z M 0.7082244,2.2338971 0.69048568,2.1825646 0.55136728,2.1787033 c -0.13872523,-0.00386 -0.13915583,-0.00374 -0.15265064,0.031687 -0.0282815,0.074396 -0.0272751,0.074874 0.15686068,0.074874 h 0.17039292 z m 4.604914,0.040802 c 0,-0.00574 -0.054878,-0.1212895 -0.1219436,-0.2566659 C 5.0516996,1.7364718 4.9352859,1.5530918 4.8386669,1.4627164 4.7717019,1.4000808 4.7714562,1.3999872 4.6282975,1.3836994 3.7209763,1.2804844 2.8457967,1.2709832 2.0073,1.355254 1.5672004,1.3994841 1.5840347,1.3957397 1.5126396,1.4651152 1.4180366,1.5570269 1.2989903,1.7459344 1.1641861,2.018028 1.0971157,2.1534045 1.0422413,2.2689043 1.0422413,2.2746939 c 0,0.00574 0.9609516,0.010528 2.1354485,0.010528 1.1744957,0 2.1354486,-0.00468 2.1354486,-0.010528 z m 0.6570604,-0.00913 c 0,-0.010766 -0.00597,-0.035443 -0.01335,-0.054749 -0.013082,-0.03442 -0.01602,-0.035111 -0.1485006,-0.035111 H 5.6731983 l -0.021507,0.054749 -0.021507,0.054749 h 0.1700092 c 0.1385648,0 0.1700079,-0.00362 0.1700079,-0.019646 z"
       id="path1" /></g></svg>
